<svg width="244" height="70" viewBox="0 0 244 70" fill="none" xmlns="http://www.w3.org/2000/svg">
<g clip-path="url(#clip0_117_628)">
<path d="M55.3479 36.1019V8.77964C55.3479 7.80489 54.5576 7.01465 53.5829 7.01465H6.29505C5.3203 7.01465 4.53006 7.80489 4.53006 8.77964V38.28C3.67863 38.404 2.84626 38.7346 2.10991 39.2812C-0.211409 40.9273 -0.760439 44.6109 1.18399 46.8827L9.13386 56.5204C14.0549 62.2798 19.2824 62.9854 27.0538 62.9854C33.7228 62.9854 36.7043 63.0148 42.5164 61.6905L48.1759 60.3369C49.0936 61.6184 50.5504 62.4485 52.1882 62.4485H54.9762C57.7463 62.4485 59.9999 60.0744 59.9999 57.1561V41.3784C60 38.592 57.9449 36.3031 55.3479 36.1019ZM47.4146 39.7326L45.0629 38.5382C41.1963 36.5865 36.7258 36.5142 32.7981 38.3403C31.7265 38.7618 29.3893 40.1759 28.177 40.1286H20.0167C17.3099 40.1286 15.1076 42.3307 15.1076 45.0376V46.3247C15.0925 46.3087 15.0766 46.2936 15.0616 46.2773L9.23423 39.9519C8.88158 39.5692 8.4854 39.2489 8.06016 38.9919V21.481H22.504V27.951C22.504 28.9257 23.2943 29.7159 24.269 29.7159H35.4062C36.3809 29.7159 37.1712 28.9257 37.1712 27.951V21.481H51.818V36.1018C49.7558 36.2611 48.0362 37.7364 47.4146 39.7326ZM26.0339 21.481H33.6411V26.186H26.0339V21.481ZM51.8179 17.951H37.1712V10.5446H51.818V17.951H51.8179ZM33.6412 10.5446V17.9511H26.034V10.5446H33.6412ZM22.5039 10.5446V17.9511H8.06004V10.5446H22.5039ZM41.6972 58.2568C36.3281 59.4865 33.0945 59.4367 27.1171 59.4367C19.8218 59.4367 16.2969 59.3188 11.8571 54.274L3.90725 44.6363C2.52444 42.8357 5.02908 40.7101 6.63804 42.3435L12.4655 48.669C14.0056 50.2941 15.9437 51.1885 18.3324 51.2411H34.4889C35.4636 51.2411 36.2539 50.4508 36.2539 49.4761C36.2539 48.5013 35.4636 47.7111 34.4889 47.7111H18.6375V45.0373C18.6375 44.277 19.2561 43.6583 20.0165 43.6583H28.1769C30.0153 43.79 32.6688 42.2549 34.2863 41.541C37.2279 40.1733 40.5762 40.2274 43.4683 41.6872L47.1647 43.5646V56.9489L41.6972 58.2568ZM56.4701 57.156C56.4701 58.1278 55.7999 58.9184 54.9763 58.9184H52.1883C51.3646 58.9184 50.6947 58.1278 50.6947 57.156V41.3784C50.6947 40.4066 51.3648 39.6159 52.1883 39.6159H54.9763C55.7999 39.6159 56.4701 40.4065 56.4701 41.3784V57.156Z" fill="#242424"/>
</g>
<path d="M82.5 10.55V13.375H75.225V17.85H80.8V20.625H75.225V28H71.725V10.55H82.5ZM88.4818 16.3C88.9318 15.5667 89.5152 14.9917 90.2318 14.575C90.9652 14.1583 91.7985 13.95 92.7318 13.95V17.625H91.8068C90.7068 17.625 89.8735 17.8833 89.3068 18.4C88.7568 18.9167 88.4818 19.8167 88.4818 21.1V28H84.9818V14.15H88.4818V16.3ZM107.964 20.775C107.964 21.275 107.931 21.725 107.864 22.125H97.7393C97.8226 23.125 98.1726 23.9083 98.7893 24.475C99.4059 25.0417 100.164 25.325 101.064 25.325C102.364 25.325 103.289 24.7667 103.839 23.65H107.614C107.214 24.9833 106.448 26.0833 105.314 26.95C104.181 27.8 102.789 28.225 101.139 28.225C99.8059 28.225 98.6059 27.9333 97.5393 27.35C96.4893 26.75 95.6643 25.9083 95.0643 24.825C94.4809 23.7417 94.1893 22.4917 94.1893 21.075C94.1893 19.6417 94.4809 18.3833 95.0643 17.3C95.6476 16.2167 96.4643 15.3833 97.5143 14.8C98.5643 14.2167 99.7726 13.925 101.139 13.925C102.456 13.925 103.631 14.2083 104.664 14.775C105.714 15.3417 106.523 16.15 107.089 17.2C107.673 18.2333 107.964 19.425 107.964 20.775ZM104.339 19.775C104.323 18.875 103.998 18.1583 103.364 17.625C102.731 17.075 101.956 16.8 101.039 16.8C100.173 16.8 99.4393 17.0667 98.8393 17.6C98.2559 18.1167 97.8976 18.8417 97.7643 19.775H104.339ZM123.394 20.775C123.394 21.275 123.361 21.725 123.294 22.125H113.169C113.252 23.125 113.602 23.9083 114.219 24.475C114.836 25.0417 115.594 25.325 116.494 25.325C117.794 25.325 118.719 24.7667 119.269 23.65H123.044C122.644 24.9833 121.877 26.0833 120.744 26.95C119.611 27.8 118.219 28.225 116.569 28.225C115.236 28.225 114.036 27.9333 112.969 27.35C111.919 26.75 111.094 25.9083 110.494 24.825C109.911 23.7417 109.619 22.4917 109.619 21.075C109.619 19.6417 109.911 18.3833 110.494 17.3C111.077 16.2167 111.894 15.3833 112.944 14.8C113.994 14.2167 115.202 13.925 116.569 13.925C117.886 13.925 119.061 14.2083 120.094 14.775C121.144 15.3417 121.952 16.15 122.519 17.2C123.102 18.2333 123.394 19.425 123.394 20.775ZM119.769 19.775C119.752 18.875 119.427 18.1583 118.794 17.625C118.161 17.075 117.386 16.8 116.469 16.8C115.602 16.8 114.869 17.0667 114.269 17.6C113.686 18.1167 113.327 18.8417 113.194 19.775H119.769ZM137.931 28.175C136.714 28.175 135.614 27.9667 134.631 27.55C133.664 27.1333 132.897 26.5333 132.331 25.75C131.764 24.9667 131.472 24.0417 131.456 22.975H135.206C135.256 23.6917 135.506 24.2583 135.956 24.675C136.422 25.0917 137.056 25.3 137.856 25.3C138.672 25.3 139.314 25.1083 139.781 24.725C140.247 24.325 140.481 23.8083 140.481 23.175C140.481 22.6583 140.322 22.2333 140.006 21.9C139.689 21.5667 139.289 21.3083 138.806 21.125C138.339 20.925 137.689 20.7083 136.856 20.475C135.722 20.1417 134.797 19.8167 134.081 19.5C133.381 19.1667 132.772 18.675 132.256 18.025C131.756 17.3583 131.506 16.475 131.506 15.375C131.506 14.3417 131.764 13.4417 132.281 12.675C132.797 11.9083 133.522 11.325 134.456 10.925C135.389 10.5083 136.456 10.3 137.656 10.3C139.456 10.3 140.914 10.7417 142.031 11.625C143.164 12.4917 143.789 13.7083 143.906 15.275H140.056C140.022 14.675 139.764 14.1833 139.281 13.8C138.814 13.4 138.189 13.2 137.406 13.2C136.722 13.2 136.172 13.375 135.756 13.725C135.356 14.075 135.156 14.5833 135.156 15.25C135.156 15.7167 135.306 16.1083 135.606 16.425C135.922 16.725 136.306 16.975 136.756 17.175C137.222 17.3583 137.872 17.575 138.706 17.825C139.839 18.1583 140.764 18.4917 141.481 18.825C142.197 19.1583 142.814 19.6583 143.331 20.325C143.847 20.9917 144.106 21.8667 144.106 22.95C144.106 23.8833 143.864 24.75 143.381 25.55C142.897 26.35 142.189 26.9917 141.256 27.475C140.322 27.9417 139.214 28.175 137.931 28.175ZM154.94 13.95C155.99 13.95 156.923 14.1833 157.74 14.65C158.557 15.1 159.19 15.775 159.64 16.675C160.107 17.5583 160.34 18.625 160.34 19.875V28H156.84V20.35C156.84 19.25 156.565 18.4083 156.015 17.825C155.465 17.225 154.715 16.925 153.765 16.925C152.798 16.925 152.032 17.225 151.465 17.825C150.915 18.4083 150.64 19.25 150.64 20.35V28H147.14V9.5H150.64V15.875C151.09 15.275 151.69 14.8083 152.44 14.475C153.19 14.125 154.023 13.95 154.94 13.95ZM165.443 12.5C164.827 12.5 164.31 12.3083 163.893 11.925C163.493 11.525 163.293 11.0333 163.293 10.45C163.293 9.86667 163.493 9.38333 163.893 9C164.31 8.6 164.827 8.4 165.443 8.4C166.06 8.4 166.568 8.6 166.968 9C167.385 9.38333 167.593 9.86667 167.593 10.45C167.593 11.0333 167.385 11.525 166.968 11.925C166.568 12.3083 166.06 12.5 165.443 12.5ZM167.168 14.15V28H163.668V14.15H167.168ZM174.126 16.15C174.576 15.5167 175.193 14.9917 175.976 14.575C176.776 14.1417 177.685 13.925 178.701 13.925C179.885 13.925 180.951 14.2167 181.901 14.8C182.868 15.3833 183.626 16.2167 184.176 17.3C184.743 18.3667 185.026 19.6083 185.026 21.025C185.026 22.4417 184.743 23.7 184.176 24.8C183.626 25.8833 182.868 26.725 181.901 27.325C180.951 27.925 179.885 28.225 178.701 28.225C177.685 28.225 176.785 28.0167 176.001 27.6C175.235 27.1833 174.61 26.6583 174.126 26.025V34.6H170.626V14.15H174.126V16.15ZM181.451 21.025C181.451 20.1917 181.276 19.475 180.926 18.875C180.593 18.2583 180.143 17.7917 179.576 17.475C179.026 17.1583 178.426 17 177.776 17C177.143 17 176.543 17.1667 175.976 17.5C175.426 17.8167 174.976 18.2833 174.626 18.9C174.293 19.5167 174.126 20.2417 174.126 21.075C174.126 21.9083 174.293 22.6333 174.626 23.25C174.976 23.8667 175.426 24.3417 175.976 24.675C176.543 24.9917 177.143 25.15 177.776 25.15C178.426 25.15 179.026 24.9833 179.576 24.65C180.143 24.3167 180.593 23.8417 180.926 23.225C181.276 22.6083 181.451 21.875 181.451 21.025ZM191.07 16.15C191.52 15.5167 192.136 14.9917 192.92 14.575C193.72 14.1417 194.628 13.925 195.645 13.925C196.828 13.925 197.895 14.2167 198.845 14.8C199.811 15.3833 200.57 16.2167 201.12 17.3C201.686 18.3667 201.97 19.6083 201.97 21.025C201.97 22.4417 201.686 23.7 201.12 24.8C200.57 25.8833 199.811 26.725 198.845 27.325C197.895 27.925 196.828 28.225 195.645 28.225C194.628 28.225 193.728 28.0167 192.945 27.6C192.178 27.1833 191.553 26.6583 191.07 26.025V34.6H187.57V14.15H191.07V16.15ZM198.395 21.025C198.395 20.1917 198.22 19.475 197.87 18.875C197.536 18.2583 197.086 17.7917 196.52 17.475C195.97 17.1583 195.37 17 194.72 17C194.086 17 193.486 17.1667 192.92 17.5C192.37 17.8167 191.92 18.2833 191.57 18.9C191.236 19.5167 191.07 20.2417 191.07 21.075C191.07 21.9083 191.236 22.6333 191.57 23.25C191.92 23.8667 192.37 24.3417 192.92 24.675C193.486 24.9917 194.086 25.15 194.72 25.15C195.37 25.15 195.97 24.9833 196.52 24.65C197.086 24.3167 197.536 23.8417 197.87 23.225C198.22 22.6083 198.395 21.875 198.395 21.025ZM206.288 12.5C205.671 12.5 205.155 12.3083 204.738 11.925C204.338 11.525 204.138 11.0333 204.138 10.45C204.138 9.86667 204.338 9.38333 204.738 9C205.155 8.6 205.671 8.4 206.288 8.4C206.905 8.4 207.413 8.6 207.813 9C208.23 9.38333 208.438 9.86667 208.438 10.45C208.438 11.0333 208.23 11.525 207.813 11.925C207.413 12.3083 206.905 12.5 206.288 12.5ZM208.013 14.15V28H204.513V14.15H208.013ZM219.146 13.95C220.796 13.95 222.129 14.475 223.146 15.525C224.163 16.5583 224.671 18.0083 224.671 19.875V28H221.171V20.35C221.171 19.25 220.896 18.4083 220.346 17.825C219.796 17.225 219.046 16.925 218.096 16.925C217.129 16.925 216.363 17.225 215.796 17.825C215.246 18.4083 214.971 19.25 214.971 20.35V28H211.471V14.15H214.971V15.875C215.438 15.275 216.029 14.8083 216.746 14.475C217.479 14.125 218.279 13.95 219.146 13.95ZM233.424 13.925C234.458 13.925 235.366 14.1333 236.149 14.55C236.933 14.95 237.549 15.475 237.999 16.125V14.15H241.524V28.1C241.524 29.3833 241.266 30.525 240.749 31.525C240.233 32.5417 239.458 33.3417 238.424 33.925C237.391 34.525 236.141 34.825 234.674 34.825C232.708 34.825 231.091 34.3667 229.824 33.45C228.574 32.5333 227.866 31.2833 227.699 29.7H231.174C231.358 30.3333 231.749 30.8333 232.349 31.2C232.966 31.5833 233.708 31.775 234.574 31.775C235.591 31.775 236.416 31.4667 237.049 30.85C237.683 30.25 237.999 29.3333 237.999 28.1V25.95C237.549 26.6 236.924 27.1417 236.124 27.575C235.341 28.0083 234.441 28.225 233.424 28.225C232.258 28.225 231.191 27.925 230.224 27.325C229.258 26.725 228.491 25.8833 227.924 24.8C227.374 23.7 227.099 22.4417 227.099 21.025C227.099 19.625 227.374 18.3833 227.924 17.3C228.491 16.2167 229.249 15.3833 230.199 14.8C231.166 14.2167 232.241 13.925 233.424 13.925ZM237.999 21.075C237.999 20.225 237.833 19.5 237.499 18.9C237.166 18.2833 236.716 17.8167 236.149 17.5C235.583 17.1667 234.974 17 234.324 17C233.674 17 233.074 17.1583 232.524 17.475C231.974 17.7917 231.524 18.2583 231.174 18.875C230.841 19.475 230.674 20.1917 230.674 21.025C230.674 21.8583 230.841 22.5917 231.174 23.225C231.524 23.8417 231.974 24.3167 232.524 24.65C233.091 24.9833 233.691 25.15 234.324 25.15C234.974 25.15 235.583 24.9917 236.149 24.675C236.716 24.3417 237.166 23.875 237.499 23.275C237.833 22.6583 237.999 21.925 237.999 21.075Z" fill="#242424"/>
<path d="M77.84 62.14C76.5467 62.14 75.3533 61.84 74.26 61.24C73.18 60.6267 72.32 59.78 71.68 58.7C71.0533 57.6067 70.74 56.38 70.74 55.02C70.74 53.66 71.0533 52.44 71.68 51.36C72.32 50.28 73.18 49.44 74.26 48.84C75.3533 48.2267 76.5467 47.92 77.84 47.92C79.1467 47.92 80.34 48.2267 81.42 48.84C82.5133 49.44 83.3733 50.28 84 51.36C84.6267 52.44 84.94 53.66 84.94 55.02C84.94 56.38 84.6267 57.6067 84 58.7C83.3733 59.78 82.5133 60.6267 81.42 61.24C80.34 61.84 79.1467 62.14 77.84 62.14ZM77.84 60.16C78.76 60.16 79.58 59.9533 80.3 59.54C81.02 59.1133 81.58 58.5133 81.98 57.74C82.3933 56.9533 82.6 56.0467 82.6 55.02C82.6 53.9933 82.3933 53.0933 81.98 52.32C81.58 51.5467 81.02 50.9533 80.3 50.54C79.58 50.1267 78.76 49.92 77.84 49.92C76.92 49.92 76.1 50.1267 75.38 50.54C74.66 50.9533 74.0933 51.5467 73.68 52.32C73.28 53.0933 73.08 53.9933 73.08 55.02C73.08 56.0467 73.28 56.9533 73.68 57.74C74.0933 58.5133 74.66 59.1133 75.38 59.54C76.1 59.9533 76.92 60.16 77.84 60.16ZM89.4636 52.58C89.7969 52.02 90.2369 51.5867 90.7836 51.28C91.3436 50.96 92.0036 50.8 92.7636 50.8V53.16H92.1836C91.2903 53.16 90.6103 53.3867 90.1436 53.84C89.6903 54.2933 89.4636 55.08 89.4636 56.2V62H87.1836V50.98H89.4636V52.58ZM94.0994 56.44C94.0994 55.3333 94.326 54.3533 94.7794 53.5C95.246 52.6467 95.8727 51.9867 96.6594 51.52C97.4594 51.04 98.346 50.8 99.3194 50.8C100.039 50.8 100.746 50.96 101.439 51.28C102.146 51.5867 102.706 52 103.119 52.52V47.2H105.419V62H103.119V60.34C102.746 60.8733 102.226 61.3133 101.559 61.66C100.906 62.0067 100.153 62.18 99.2994 62.18C98.3394 62.18 97.4594 61.94 96.6594 61.46C95.8727 60.9667 95.246 60.2867 94.7794 59.42C94.326 58.54 94.0994 57.5467 94.0994 56.44ZM103.119 56.48C103.119 55.72 102.959 55.06 102.639 54.5C102.333 53.94 101.926 53.5133 101.419 53.22C100.913 52.9267 100.366 52.78 99.7794 52.78C99.1927 52.78 98.646 52.9267 98.1394 53.22C97.6327 53.5 97.2194 53.92 96.8994 54.48C96.5927 55.0267 96.4394 55.68 96.4394 56.44C96.4394 57.2 96.5927 57.8667 96.8994 58.44C97.2194 59.0133 97.6327 59.4533 98.1394 59.76C98.6594 60.0533 99.206 60.2 99.7794 60.2C100.366 60.2 100.913 60.0533 101.419 59.76C101.926 59.4667 102.333 59.04 102.639 58.48C102.959 57.9067 103.119 57.24 103.119 56.48ZM118.514 56.22C118.514 56.6333 118.487 57.0067 118.434 57.34H110.014C110.081 58.22 110.407 58.9267 110.994 59.46C111.581 59.9933 112.301 60.26 113.154 60.26C114.381 60.26 115.247 59.7467 115.754 58.72H118.214C117.881 59.7333 117.274 60.5667 116.394 61.22C115.527 61.86 114.447 62.18 113.154 62.18C112.101 62.18 111.154 61.9467 110.314 61.48C109.487 61 108.834 60.3333 108.354 59.48C107.887 58.6133 107.654 57.6133 107.654 56.48C107.654 55.3467 107.881 54.3533 108.334 53.5C108.801 52.6333 109.447 51.9667 110.274 51.5C111.114 51.0333 112.074 50.8 113.154 50.8C114.194 50.8 115.121 51.0267 115.934 51.48C116.747 51.9333 117.381 52.5733 117.834 53.4C118.287 54.2133 118.514 55.1533 118.514 56.22ZM116.134 55.5C116.121 54.66 115.821 53.9867 115.234 53.48C114.647 52.9733 113.921 52.72 113.054 52.72C112.267 52.72 111.594 52.9733 111.034 53.48C110.474 53.9733 110.141 54.6467 110.034 55.5H116.134ZM123.038 52.58C123.371 52.02 123.811 51.5867 124.358 51.28C124.918 50.96 125.578 50.8 126.338 50.8V53.16H125.758C124.864 53.16 124.184 53.3867 123.718 53.84C123.264 54.2933 123.038 55.08 123.038 56.2V62H120.758V50.98H123.038V52.58ZM138.409 62.18C137.369 62.18 136.429 61.9467 135.589 61.48C134.749 61 134.089 60.3333 133.609 59.48C133.129 58.6133 132.889 57.6133 132.889 56.48C132.889 55.36 133.136 54.3667 133.629 53.5C134.122 52.6333 134.796 51.9667 135.649 51.5C136.502 51.0333 137.456 50.8 138.509 50.8C139.562 50.8 140.516 51.0333 141.369 51.5C142.222 51.9667 142.896 52.6333 143.389 53.5C143.882 54.3667 144.129 55.36 144.129 56.48C144.129 57.6 143.876 58.5933 143.369 59.46C142.862 60.3267 142.169 61 141.289 61.48C140.422 61.9467 139.462 62.18 138.409 62.18ZM138.409 60.2C138.996 60.2 139.542 60.06 140.049 59.78C140.569 59.5 140.989 59.08 141.309 58.52C141.629 57.96 141.789 57.28 141.789 56.48C141.789 55.68 141.636 55.0067 141.329 54.46C141.022 53.9 140.616 53.48 140.109 53.2C139.602 52.92 139.056 52.78 138.469 52.78C137.882 52.78 137.336 52.92 136.829 53.2C136.336 53.48 135.942 53.9 135.649 54.46C135.356 55.0067 135.209 55.68 135.209 56.48C135.209 57.6667 135.509 58.5867 136.109 59.24C136.722 59.88 137.489 60.2 138.409 60.2ZM150.643 59.96L153.763 50.98H156.183L151.983 62H149.263L145.083 50.98H147.523L150.643 59.96ZM168.006 56.22C168.006 56.6333 167.98 57.0067 167.926 57.34H159.506C159.573 58.22 159.9 58.9267 160.486 59.46C161.073 59.9933 161.793 60.26 162.646 60.26C163.873 60.26 164.74 59.7467 165.246 58.72H167.706C167.373 59.7333 166.766 60.5667 165.886 61.22C165.02 61.86 163.94 62.18 162.646 62.18C161.593 62.18 160.646 61.9467 159.806 61.48C158.98 61 158.326 60.3333 157.846 59.48C157.38 58.6133 157.146 57.6133 157.146 56.48C157.146 55.3467 157.373 54.3533 157.826 53.5C158.293 52.6333 158.94 51.9667 159.766 51.5C160.606 51.0333 161.566 50.8 162.646 50.8C163.686 50.8 164.613 51.0267 165.426 51.48C166.24 51.9333 166.873 52.5733 167.326 53.4C167.78 54.2133 168.006 55.1533 168.006 56.22ZM165.626 55.5C165.613 54.66 165.313 53.9867 164.726 53.48C164.14 52.9733 163.413 52.72 162.546 52.72C161.76 52.72 161.086 52.9733 160.526 53.48C159.966 53.9733 159.633 54.6467 159.526 55.5H165.626ZM172.53 52.58C172.863 52.02 173.303 51.5867 173.85 51.28C174.41 50.96 175.07 50.8 175.83 50.8V53.16H175.25C174.357 53.16 173.677 53.3867 173.21 53.84C172.757 54.2933 172.53 55.08 172.53 56.2V62H170.25V50.98H172.53V52.58ZM182.521 49.5V47.42H186.681V62H184.381V49.5H182.521ZM199.213 49.38H192.513V53.36C192.793 52.9867 193.207 52.6733 193.753 52.42C194.313 52.1667 194.907 52.04 195.533 52.04C196.653 52.04 197.56 52.28 198.253 52.76C198.96 53.24 199.46 53.8467 199.753 54.58C200.06 55.3133 200.213 56.0867 200.213 56.9C200.213 57.8867 200.02 58.7667 199.633 59.54C199.26 60.3 198.693 60.9 197.933 61.34C197.187 61.78 196.267 62 195.173 62C193.72 62 192.553 61.64 191.673 60.92C190.793 60.2 190.267 59.2467 190.093 58.06H192.313C192.46 58.6867 192.787 59.1867 193.293 59.56C193.8 59.92 194.433 60.1 195.193 60.1C196.14 60.1 196.847 59.8133 197.313 59.24C197.793 58.6667 198.033 57.9067 198.033 56.96C198.033 56 197.793 55.2667 197.313 54.76C196.833 54.24 196.127 53.98 195.193 53.98C194.54 53.98 193.987 54.1467 193.533 54.48C193.093 54.8 192.773 55.24 192.573 55.8H190.413V47.38H199.213V49.38ZM202.587 54.52C202.587 52.2133 202.973 50.4133 203.747 49.12C204.533 47.8133 205.88 47.16 207.787 47.16C209.693 47.16 211.033 47.8133 211.807 49.12C212.593 50.4133 212.987 52.2133 212.987 54.52C212.987 56.8533 212.593 58.68 211.807 60C211.033 61.3067 209.693 61.96 207.787 61.96C205.88 61.96 204.533 61.3067 203.747 60C202.973 58.68 202.587 56.8533 202.587 54.52ZM210.747 54.52C210.747 53.44 210.673 52.5267 210.527 51.78C210.393 51.0333 210.113 50.4267 209.687 49.96C209.26 49.48 208.627 49.24 207.787 49.24C206.947 49.24 206.313 49.48 205.887 49.96C205.46 50.4267 205.173 51.0333 205.027 51.78C204.893 52.5267 204.827 53.44 204.827 54.52C204.827 55.64 204.893 56.58 205.027 57.34C205.16 58.1 205.44 58.7133 205.867 59.18C206.307 59.6467 206.947 59.88 207.787 59.88C208.627 59.88 209.26 59.6467 209.687 59.18C210.127 58.7133 210.413 58.1 210.547 57.34C210.68 56.58 210.747 55.64 210.747 54.52ZM230.275 58.04C230.275 58.7067 230.108 59.3333 229.775 59.92C229.455 60.5067 228.975 61 228.335 61.4C227.708 61.8 226.961 62.04 226.095 62.12V63.74H224.795V62.12C223.541 62 222.528 61.6067 221.755 60.94C220.981 60.2733 220.595 59.3933 220.595 58.3H223.035C223.075 58.82 223.241 59.2533 223.535 59.6C223.828 59.9333 224.248 60.1467 224.795 60.24V55.84C223.901 55.6133 223.175 55.3867 222.615 55.16C222.055 54.92 221.575 54.5467 221.175 54.04C220.788 53.5333 220.595 52.84 220.595 51.96C220.595 50.8533 220.981 49.94 221.755 49.22C222.528 48.4867 223.541 48.06 224.795 47.94V46.32H226.095V47.94C227.268 48.0467 228.208 48.42 228.915 49.06C229.635 49.6867 230.041 50.5533 230.135 51.66H227.695C227.655 51.2467 227.495 50.88 227.215 50.56C226.935 50.2267 226.561 50 226.095 49.88V54.2C226.988 54.4133 227.715 54.64 228.275 54.88C228.835 55.1067 229.308 55.4733 229.695 55.98C230.081 56.4733 230.275 57.16 230.275 58.04ZM222.915 51.84C222.915 52.3867 223.075 52.8133 223.395 53.12C223.728 53.4267 224.195 53.6733 224.795 53.86V49.82C224.221 49.8867 223.761 50.0933 223.415 50.44C223.081 50.7867 222.915 51.2533 222.915 51.84ZM226.095 60.24C226.681 60.1467 227.141 59.9133 227.475 59.54C227.808 59.1533 227.975 58.6933 227.975 58.16C227.975 57.6267 227.808 57.2133 227.475 56.92C227.155 56.6133 226.695 56.3667 226.095 56.18V60.24Z" fill="#898989"/>
<defs>
<clipPath id="clip0_117_628">
<rect width="60" height="60" fill="white" transform="translate(0 5)"/>
</clipPath>
</defs>
</svg>
