<svg width="30" height="30" viewBox="0 0 30 30" fill="none" xmlns="http://www.w3.org/2000/svg">
<path d="M25.6091 21.2003L20.5279 16.6287C20.2877 16.4127 19.972 16.2975 19.6476 16.3074C19.3232 16.3174 19.0154 16.4516 18.7891 16.6819L15.7979 19.7259C15.0779 19.5898 13.6304 19.1433 12.1404 17.6727C10.6504 16.1971 10.1991 14.761 10.0654 14.0535L13.1391 11.0924C13.3721 10.8687 13.508 10.5641 13.5181 10.2429C13.5281 9.92182 13.4115 9.60944 13.1929 9.37191L8.5741 4.3452C8.35541 4.10692 8.05145 3.96239 7.72679 3.94229C7.40214 3.9222 7.08235 4.02813 6.83535 4.23759L4.12285 6.53944C3.90674 6.75406 3.77775 7.0397 3.76035 7.34218C3.7416 7.6514 3.3841 14.9763 9.1241 20.6585C14.1316 25.6123 20.4041 25.9747 22.1316 25.9747C22.3841 25.9747 22.5391 25.9672 22.5804 25.9648C22.886 25.9478 23.1745 25.8196 23.3904 25.6048L25.7154 22.9195C25.9279 22.6759 26.0357 22.3597 26.0159 22.0385C25.996 21.7173 25.85 21.4165 25.6091 21.2003V21.2003Z" fill="black"/>
</svg>
