<svg width="23" height="23" viewBox="0 0 23 23" fill="none" xmlns="http://www.w3.org/2000/svg">
<g clip-path="url(#clip0_63_247)">
<path d="M23 11.3794C23 14.3974 21.7884 17.2918 19.6317 19.4258C17.4751 21.5598 14.55 22.7587 11.5 22.7587C8.45001 22.7587 5.52494 21.5598 3.36827 19.4258C1.2116 17.2918 0 14.3974 0 11.3794C0 8.36137 1.2116 5.46699 3.36827 3.33294C5.52494 1.19889 8.45001 0 11.5 0C14.55 0 17.4751 1.19889 19.6317 3.33294C21.7884 5.46699 23 8.36137 23 11.3794V11.3794ZM11.5 4.97847C11.5 4.78985 11.4243 4.60895 11.2895 4.47557C11.1547 4.3422 10.9719 4.26726 10.7812 4.26726C10.5906 4.26726 10.4078 4.3422 10.273 4.47557C10.1382 4.60895 10.0625 4.78985 10.0625 4.97847V12.8018C10.0625 12.9272 10.0961 13.0503 10.1597 13.1587C10.2233 13.2671 10.3147 13.3569 10.4247 13.4191L15.456 16.264C15.6211 16.3523 15.8146 16.3732 15.995 16.3222C16.1755 16.2712 16.3287 16.1524 16.4218 15.9911C16.5149 15.8299 16.5406 15.639 16.4933 15.4593C16.4461 15.2796 16.3297 15.1252 16.169 15.0293L11.5 12.3893V4.97847Z" fill="black"/>
</g>
<defs>
<clipPath id="clip0_63_247">
<rect width="23" height="22.7587" fill="white"/>
</clipPath>
</defs>
</svg>
