<svg width="22" height="28" viewBox="0 0 22 28" fill="none" xmlns="http://www.w3.org/2000/svg">
<path d="M11 0C8.08369 0.00335473 5.28779 1.13448 3.22564 3.14524C1.16348 5.15601 0.00345217 7.88223 1.17029e-05 10.7259C-0.00348119 13.0497 0.774992 15.3105 2.21601 17.1614C2.21601 17.1614 2.51601 17.5466 2.56501 17.6021L11 27.3022L19.439 17.5973C19.483 17.5456 19.784 17.1614 19.784 17.1614L19.785 17.1585C21.2253 15.3084 22.0034 13.0486 22 10.7259C21.9966 7.88223 20.8365 5.15601 18.7744 3.14524C16.7122 1.13448 13.9163 0.00335473 11 0V0ZM11 14.6262C10.2089 14.6262 9.43553 14.3975 8.77773 13.9689C8.11993 13.5403 7.60724 12.9312 7.30449 12.2185C7.00174 11.5058 6.92253 10.7216 7.07687 9.96497C7.23121 9.20838 7.61217 8.51341 8.17158 7.96794C8.73099 7.42247 9.44373 7.051 10.2197 6.9005C10.9956 6.75001 11.7998 6.82725 12.5307 7.12245C13.2616 7.41766 13.8864 7.91758 14.3259 8.55898C14.7654 9.20038 15 9.95447 15 10.7259C14.9987 11.7599 14.5768 12.7512 13.827 13.4824C13.0771 14.2136 12.0605 14.6249 11 14.6262V14.6262Z" fill="black"/>
</svg>
